<?xml version="1.0" encoding="UTF-8" standalone="no"?>
<svg
   width="2048"
   height="1024"
   viewBox="-512 0 2048 1024"
   fill="none"
   version="1.1"
   id="svg27"
   sodipodi:docname="toolhive-icon-honey-wide.svg"
   inkscape:version="1.4.2 (ebf0e940d0, 2025-05-08)"
   xmlns:inkscape="http://www.inkscape.org/namespaces/inkscape"
   xmlns:sodipodi="http://sodipodi.sourceforge.net/DTD/sodipodi-0.dtd"
   xmlns:xlink="http://www.w3.org/1999/xlink"
   xmlns="http://www.w3.org/2000/svg"
   xmlns:svg="http://www.w3.org/2000/svg">
  <sodipodi:namedview
     id="namedview27"
     pagecolor="#ffffff"
     bordercolor="#000000"
     borderopacity="0.25"
     inkscape:showpageshadow="2"
     inkscape:pageopacity="0.0"
     inkscape:pagecheckerboard="0"
     inkscape:deskcolor="#d1d1d1"
     inkscape:zoom="0.60107422"
     inkscape:cx="1043.9643"
     inkscape:cy="512.41592"
     inkscape:window-width="1920"
     inkscape:window-height="1163"
     inkscape:window-x="0"
     inkscape:window-y="0"
     inkscape:window-maximized="1"
     inkscape:current-layer="svg27" />
  <rect
     width="2048"
     height="1024"
     fill="#f18d8d"
     id="rect1"
     x="-512"
     y="0"
     style="display:inline;fill:url(#pattern27);fill-opacity:1;stroke-width:1.41421" />
  <rect
     width="2048"
     height="1024"
     fill="url(#paint0_linear_5070_2)"
     id="rect2"
     x="-512"
     y="0"
     style="display:inline;fill:url(#paint0_linear_5070_2)"
     inkscape:export-filename="toolhive-icon-honey-wide-80x40.svg"
     inkscape:export-xdpi="3.75"
     inkscape:export-ydpi="3.75" />
  <g
     filter="url(#filter0_d_5070_2)"
     id="g11"
     style="display:inline"
     sodipodi:insensitive="true">
    <path
       d="m 796.376,145.352 c 24.085,0 43.609,19.524 43.609,43.608 v 136.687 c 0,24.084 -19.525,43.607 -43.609,43.607 H 643.897 c -9.273,0 -16.159,7.157 -16.159,15.236 v 449.701 c 0,24.084 -19.525,43.608 -43.609,43.608 H 439.802 c -24.084,0 -43.608,-19.524 -43.608,-43.608 V 384.53 c 0,-8.099 -6.907,-15.235 -16.159,-15.235 h -152.48 c -24.084,0 -43.608,-19.524 -43.608,-43.608 V 188.96 c 0,-24.084 19.524,-43.608 43.608,-43.608 z"
       fill="#fdc04a"
       stroke="#2e270e"
       stroke-width="19.2973"
       id="path2" />
    <mask
       id="mask0_5070_2"
       maskUnits="userSpaceOnUse"
       x="193"
       y="155"
       width="638"
       height="714">
      <path
         d="m 193.595,325.687 c 0,18.755 15.204,33.959 33.96,33.959 h 152.48 c 14.235,0 25.807,11.118 25.807,24.884 v 449.661 c 0,18.755 15.204,33.96 33.96,33.96 H 584.13 c 18.755,0 33.959,-15.205 33.959,-33.96 V 384.49 c 0,-13.726 11.53,-24.884 25.808,-24.884 h 152.48 c 18.755,0 33.959,-15.204 33.959,-33.959 V 188.96 C 830.336,170.205 815.132,155 796.377,155 H 227.555 c -18.756,0 -33.96,15.205 -33.96,33.96 z"
         fill="#fcb732"
         id="path3" />
    </mask>
    <g
       mask="url(#mask0_5070_2)"
       id="g10">
      <path
         d="m 127.861,-410.366 -35.8305,20.99 -0.2832,40.694 -0.425,40.552 -33.9897,19.705 -33.9897,19.704 -0.7081,40.838 -0.7081,40.837 -34.273,19.99 -34.4146,19.991 v 40.409 40.2657 l -34.273,19.9904 -34.4151,19.9902 -0.424,40.6946 -0.284,40.5517 -34.414,19.9903 -34.273,19.9903 -0.425,40.5518 -0.425,40.694 -34.556,19.991 -34.556,19.99 -0.425,40.695 -0.425,40.694 -34.415,19.991 -34.273,19.99 v 42.836 42.837 l 34.415,19.99 34.273,19.99 0.425,40.695 0.425,40.694 34.556,19.99 34.556,19.991 0.425,40.694 0.425,40.552 34.273,19.99 34.414,19.991 0.284,40.551 0.424,40.695 34.2735,19.99 34.4146,19.991 v 40.266 40.409 l 34.4146,19.99 34.273,19.99 0.7081,40.838 0.7081,40.836 33.9897,19.71 33.9897,19.7 0.425,40.55 0.2832,40.7 35.6895,20.7 c 19.544,11.42 36.255,20.85 37.247,21.13 0.85,0.29 17.136,-8.56 35.831,-19.56 l 34.273,-19.85 34.131,19.85 c 18.694,10.85 34.556,19.85 35.264,19.85 0.708,0 16.57,-9 35.265,-19.85 l 34.131,-19.85 34.131,19.85 c 18.695,10.85 34.557,19.85 35.265,19.85 0.708,0 16.57,-9 35.264,-19.85 l 34.131,-19.85 34.132,19.85 c 18.694,10.85 34.556,19.85 35.264,19.85 0.708,0 16.57,-9 35.264,-19.85 l 34.132,-19.85 34.131,19.85 c 18.695,10.85 34.556,19.85 35.265,19.85 0.708,0 16.57,-9 35.264,-19.85 l 34.131,-19.85 34.132,19.85 c 18.694,10.85 34.556,19.85 35.264,19.85 0.708,0 16.57,-9 35.264,-19.85 l 34.132,-19.85 34.273,19.85 c 18.694,11 34.981,19.85 35.83,19.56 0.989,-0.28 17.699,-9.71 37.249,-21.13 l 35.69,-20.7 0.28,-40.7 0.43,-40.55 33.99,-19.7 33.99,-19.71 0.7,-40.836 0.71,-40.838 34.42,-19.99 34.27,-19.99 v -40.409 -40.266 l 34.27,-19.991 34.42,-19.99 0.42,-40.695 0.28,-40.551 34.42,-19.991 34.27,-19.99 0.43,-40.552 0.42,-40.694 34.56,-19.991 34.55,-19.99 0.43,-40.694 0.42,-40.695 34.42,-19.99 34.27,-19.99 V 380.25 337.414 l -34.27,-19.99 -34.42,-19.991 -0.42,-40.694 -0.43,-40.695 -34.55,-19.99 -34.56,-19.991 -0.42,-40.694 -0.43,-40.5518 -34.27,-19.9903 -34.42,-19.9903 -0.28,-40.5517 -0.42,-40.6946 -34.28,-19.9902 -34.41,-19.9904 v -40.2657 -40.409 l -34.27,-19.991 -34.42,-19.99 -0.71,-40.837 -0.7,-40.838 -33.99,-19.704 -33.99,-19.705 -0.43,-40.552 -0.28,-40.694 -35.69,-20.705 c -19.55,-11.423 -36.26,-20.847 -37.249,-21.132 -0.849,-0.286 -17.136,8.567 -35.83,19.562 l -34.273,19.847 -34.132,-19.847 c -18.694,-10.852 -34.556,-19.848 -35.264,-19.848 -0.708,0 -16.57,8.996 -35.264,19.848 l -34.132,19.847 -34.131,-19.847 c -18.694,-10.852 -34.556,-19.848 -35.264,-19.848 -0.709,0 -16.57,8.996 -35.265,19.848 l -34.131,19.847 -34.132,-19.847 c -18.694,-10.852 -34.556,-19.848 -35.264,-19.848 -0.708,0 -16.57,8.996 -35.264,19.848 l -34.132,19.847 -34.131,-19.847 c -18.694,-10.852 -34.556,-19.848 -35.264,-19.848 -0.708,0 -16.57,8.996 -35.265,19.848 l -34.131,19.847 -34.131,-19.847 c -18.695,-10.852 -34.557,-19.848 -35.265,-19.848 -0.708,0 -16.57,8.996 -35.264,19.848 l -34.131,19.847 -34.132,-19.847 c -18.694,-10.852 -34.839,-19.848 -35.689,-19.705 -0.991,0 -17.845,9.567 -37.389,20.99 z m 70.671,7.282 31.582,18.42 v 38.124 38.124 l -31.582,18.42 c -17.42,10.138 -32.149,18.42 -32.857,18.42 -0.567,0 -15.437,-8.282 -32.857,-18.42 l -31.582,-18.42 v -38.124 -37.981 l 31.157,-18.42 c 17.137,-10.138 31.866,-18.42 32.857,-18.42 0.85,-0.143 15.862,8.139 33.282,18.277 z m 138.791,0 31.582,18.42 v 38.124 38.124 l -31.582,18.42 c -17.42,10.138 -32.149,18.42 -32.857,18.42 -0.566,0 -15.437,-8.282 -32.856,-18.42 l -31.583,-18.42 v -38.124 -37.981 l 31.158,-18.42 c 17.136,-10.138 31.865,-18.42 32.856,-18.42 0.85,-0.143 15.862,8.139 33.282,18.277 z m 138.791,0 31.583,18.563 v 37.981 38.124 l -31.583,18.42 c -17.419,10.138 -32.148,18.42 -32.856,18.42 -0.708,0 -15.437,-8.282 -32.857,-18.42 l -31.582,-18.42 v -38.124 -37.981 l 31.157,-18.42 c 17.137,-10.138 31.865,-18.42 32.857,-18.42 0.85,-0.143 15.862,8.139 33.281,18.277 z m 138.792,0 31.582,18.563 v 37.981 38.124 l -31.582,18.42 c -17.42,10.138 -32.149,18.42 -32.857,18.42 -0.708,0 -15.437,-8.282 -32.857,-18.42 l -31.582,-18.42 v -38.124 -37.981 l 31.158,-18.42 c 17.136,-10.138 31.865,-18.42 32.856,-18.42 0.85,-0.143 15.862,8.139 33.282,18.277 z m 138.791,0 31.582,18.563 v 37.981 38.124 l -31.582,18.42 c -17.419,10.138 -32.148,18.42 -32.856,18.42 -0.709,0 -15.438,-8.282 -32.857,-18.42 l -31.582,-18.42 v -38.124 -37.981 l 31.157,-18.42 c 17.136,-10.138 31.865,-18.42 32.857,-18.42 0.849,-0.143 15.862,8.139 33.281,18.277 z m 138.792,0 31.582,18.563 v 37.981 38.124 l -31.582,18.42 c -17.42,10.138 -32.29,18.42 -32.857,18.42 -0.708,0 -15.437,-8.282 -32.857,-18.42 l -31.582,-18.42 v -38.124 -38.124 l 31.157,-18.277 c 17.137,-10.138 31.866,-18.42 32.857,-18.42 0.85,-0.143 15.862,8.139 33.282,18.277 z m 138.791,0 31.58,18.563 v 37.981 38.124 l -31.58,18.42 c -17.42,10.138 -32.29,18.42 -32.857,18.42 -0.708,0 -15.437,-8.282 -32.856,-18.42 l -31.582,-18.42 v -38.124 -38.124 l 31.157,-18.277 c 17.136,-10.138 31.865,-18.42 32.856,-18.42 0.85,-0.143 15.862,8.139 33.282,18.277 z m -902.002,121.37 31.44,18.419 v 38.125 37.981 l -32.149,18.705 -32.2898,18.706 -32.1486,-18.706 -32.2903,-18.705 v -38.124 -38.267 l 31.1573,-18.134 c 17.1365,-10.138 32.007,-18.277 32.9984,-18.277 0.8497,-0.143 15.862,8.139 33.282,18.277 z m 138.791,0 31.441,18.419 v 38.125 37.981 l -32.149,18.705 -32.29,18.706 -32.149,-18.706 -32.29,-18.705 v -38.124 -37.982 l 31.157,-18.277 c 17.136,-10.138 32.007,-18.419 32.998,-18.419 0.85,-0.143 15.862,8.139 33.282,18.277 z m 138.65,0 31.582,18.419 v 37.982 38.124 l -32.149,18.705 -32.29,18.706 -32.149,-18.706 -32.29,-18.705 v -38.124 -37.982 l 31.157,-18.277 c 17.137,-10.138 31.866,-18.419 32.857,-18.419 0.85,-0.143 15.862,8.139 33.282,18.277 z m 138.791,0 31.582,18.419 v 37.982 38.124 l -32.148,18.705 -32.291,18.706 -32.148,-18.706 -32.29,-18.705 v -38.124 -37.982 l 31.157,-18.277 c 17.136,-10.138 31.865,-18.419 32.857,-18.419 0.849,-0.143 15.861,8.139 33.281,18.277 z m 138.933,0 31.441,18.419 v 38.125 37.981 l -32.149,18.705 -32.29,18.706 -32.149,-18.706 -32.29,-18.705 v -38.124 -37.982 l 31.157,-18.277 c 17.137,-10.138 32.007,-18.419 32.999,-18.419 0.849,-0.143 15.861,8.139 33.281,18.277 z m 138.65,0 31.582,18.419 v 37.982 38.124 l -32.149,18.705 -32.29,18.706 -32.148,-18.706 -32.291,-18.705 v -38.124 -37.982 l 31.158,-18.277 c 17.136,-10.138 31.865,-18.419 32.856,-18.419 0.85,-0.143 15.862,8.139 33.282,18.277 z m 138.791,0 31.583,18.419 v 37.982 38.124 l -32.149,18.705 -32.29,18.706 -32.149,-18.706 -32.29,-18.705 v -37.981 -38.125 l 31.157,-18.277 c 17.137,-10.138 31.866,-18.419 32.857,-18.419 0.85,-0.143 15.862,8.139 33.281,18.277 z m 139.216,0 31.16,18.134 v 38.267 38.124 l -32.15,18.705 -32.29,18.706 -32.15,-18.706 -32.29,-18.705 v -37.981 -38.125 l 31.16,-18.277 c 17.13,-10.138 32.15,-18.419 33.28,-18.419 1.13,0 16.14,8.139 33.28,18.277 z m -1033.8537,125.367 24.076,14.136 0.425,37.839 0.2832,37.839 L 59.457,-47.5423 26.8835,-28.6943 -5.69,-47.5423 -38.2635,-66.533 v -37.982 l 0.1416,-37.838 32.14867,-18.706 32.14863,-18.705 8.4974,4.712 c 4.6736,2.57 19.4025,10.995 32.5735,18.705 z m 1135.1137,51.832 v 37.982 l -32.57,18.9907 -32.58,18.848 -32.57,-18.848 -32.57,-18.9907 0.28,-37.839 0.43,-37.839 32.29,-18.848 32.29,-18.848 32.43,18.848 32.43,18.706 z m -1003.403,-55.972 31.157,18.276 0.425,37.839 0.283,37.839 -32.574,18.9907 -32.573,18.848 -32.574,-18.9908 -32.573,-18.9907 0.283,-37.6962 0.425,-37.839 31.157,-18.276 c 17.137,-9.996 32.149,-18.135 33.282,-18.277 1.133,0 16.145,8.281 33.282,18.277 z m 138.791,0 31.157,18.276 0.425,37.839 0.283,37.839 -32.573,18.9907 -32.574,18.848 -32.573,-18.9908 -32.574,-18.9907 0.284,-37.6962 0.424,-37.839 31.158,-18.276 c 17.136,-9.996 32.148,-18.135 33.281,-18.135 1.133,0 16.145,8.139 33.282,18.135 z m 138.791,0 31.158,18.276 0.424,37.839 0.284,37.839 -32.574,18.9907 -32.573,18.848 -32.574,-18.848 -32.573,-18.9907 0.283,-37.839 0.425,-37.839 31.157,-18.276 c 17.137,-9.996 32.149,-18.135 33.282,-18.135 1.133,0 16.145,8.139 33.281,18.135 z m 138.792,0 31.157,18.276 0.425,37.839 0.283,37.839 -32.573,18.9907 -32.574,18.848 -32.573,-18.848 -32.574,-18.9907 0.283,-37.839 0.425,-37.839 31.158,-18.276 c 17.136,-9.996 32.148,-18.135 33.281,-18.135 1.133,0 16.145,8.139 33.282,18.135 z m 138.791,0 31.157,18.276 0.425,37.839 0.284,37.839 -32.574,18.9907 -32.573,18.848 -32.574,-18.848 -32.573,-18.9907 0.283,-37.839 0.425,-37.839 31.157,-18.276 c 17.136,-9.996 32.149,-18.135 33.282,-18.135 1.132,0 16.145,8.139 33.281,18.135 z m 138.792,0 31.157,18.276 0.425,37.839 0.283,37.6962 -32.573,18.9907 -32.574,18.9908 -32.574,-18.848 -32.573,-18.9907 0.283,-37.839 0.425,-37.839 31.157,-18.276 c 17.137,-9.996 32.149,-18.277 33.282,-18.277 1.133,0.142 16.145,8.281 33.282,18.277 z m 138.786,0 31.16,18.276 0.43,37.839 0.28,37.6962 -32.57,18.9907 -32.577,18.9908 -32.573,-18.848 -32.574,-18.9907 0.284,-37.839 0.425,-37.839 31.157,-18.276 c 17.136,-9.996 32.148,-18.277 33.281,-18.277 1.133,0.142 16.147,8.281 33.277,18.277 z M -9.51386,-39.5461 22.6348,-20.9837 V 16.8551 54.6939 L -9.93871,73.5419 -42.3706,92.3899 -75.0857,73.5419 -107.659,54.6939 V 16.8551 -20.9837 l 32.29,-18.848 c 17.703,-10.2807 32.5735,-18.7051 32.9984,-18.5624 0.4249,0.1428 15.2954,8.5672 32.85674,18.848 z m 138.79186,0 32.148,18.5624 V 16.8551 54.6939 L 128.853,73.5419 96.4208,92.3899 63.7057,73.5419 31.1322,54.6939 V 16.8551 l 0.1416,-37.8388 32.1487,-18.848 c 17.703,-10.2807 32.5735,-18.5624 32.9983,-18.5624 0.4249,0.1428 15.2952,8.5672 32.8572,18.848 z m 138.791,0 32.149,18.5624 v 37.8388 37.8388 l -32.574,18.848 -32.432,18.848 -32.715,-18.848 -32.573,-18.848 V 16.8551 l 0.141,-37.8388 32.149,-18.848 c 17.703,-10.2807 32.573,-18.5624 32.998,-18.5624 0.425,0.1428 15.296,8.5672 32.857,18.848 z m 138.791,0 32.149,18.5624 V 16.8551 54.6939 L 406.436,73.5419 373.862,92.5326 341.289,73.5419 308.715,54.6939 V 16.8551 l 0.142,-37.8388 32.148,-18.848 c 17.703,-10.2807 32.574,-18.5624 32.999,-18.5624 0.424,0.1428 15.153,8.5672 32.856,18.848 z m 138.792,0 32.148,18.5624 V 16.8551 54.6939 L 545.227,73.5419 512.653,92.5326 480.08,73.5419 447.506,54.6939 V 16.8551 -20.9837 l 32.291,-18.7052 c 17.703,-10.4235 32.573,-18.7052 32.998,-18.5624 0.425,0 15.154,8.4244 32.857,18.7052 z m 138.791,0 32.149,18.5624 V 16.8551 54.6939 L 684.018,73.5419 651.445,92.5326 618.871,73.5419 586.298,54.6939 V 16.8551 -20.9837 l 32.29,-18.7052 c 17.703,-10.4235 32.574,-18.7052 32.998,-18.5624 0.425,0 15.154,8.4244 32.857,18.7052 z m 138.792,0 32.007,18.5624 0.141,37.8388 V 54.6939 L 822.81,73.5419 790.236,92.5326 757.663,73.5419 725.089,54.6939 V 16.8551 -20.9837 l 32.29,-18.7052 c 17.703,-10.4235 32.574,-18.7052 32.999,-18.5624 0.425,0 15.295,8.4244 32.857,18.7052 z m 138.791,0 32.007,18.5624 0.142,37.8388 v 37.8388 l -32.574,18.848 -32.715,18.848 -32.432,-18.848 -32.573,-18.848 V 16.8551 -20.9837 l 32.29,-18.848 c 17.703,-10.2807 32.573,-18.5624 32.998,-18.5624 0.425,0.1428 15.296,8.5672 32.857,18.848 z m 138.794,0 32,18.5624 0.15,37.8388 v 37.8388 l -32.58,18.848 -32.71,18.848 -32.43,-18.848 -32.58,-18.848 V 16.8551 -20.9837 l 32.29,-18.848 c 17.71,-10.2807 32.58,-18.5624 33,-18.5624 0.43,0.1428 15.3,8.5672 32.86,18.848 z m 138.93,0 32.01,18.5624 v 37.8388 37.8388 l -32.58,18.848 -32.71,18.848 -32.43,-18.848 -32.58,-18.848 V 16.8551 -20.9837 l 32.29,-18.848 c 17.71,-10.2807 32.58,-18.5624 33.14,-18.5624 0.57,0.1428 15.44,8.5672 32.86,18.848 z M -79.1928,81.3952 -46.7609,100.243 v 37.982 l -0.1416,37.838 -32.4319,18.848 -32.5736,18.706 -32.29,-18.848 -32.149,-18.706 -0.425,-37.981 -0.283,-37.839 32.149,-18.8478 c 17.844,-10.2807 32.432,-18.848 32.715,-18.848 0.283,0 15.012,8.5673 32.9982,18.848 z m 138.6498,0 32.5735,18.9908 v 37.839 L 91.8888,176.063 59.3154,194.911 26.8835,213.617 -5.40677,194.769 -37.5554,176.063 -37.9803,138.225 -38.2635,100.386 -6.11488,81.5379 C 11.7297,71.1144 26.317,62.69 26.6002,62.69 26.7418,62.5472 41.6124,71.1145 59.457,81.3952 Z m 138.791,0 32.574,18.9908 v 37.839 l -0.142,37.838 -32.573,18.848 -32.432,18.706 -32.29,-18.848 -32.149,-18.706 -0.425,-37.838 -0.283,-37.839 32.149,-18.8481 C 150.521,71.1144 165.108,62.69 165.392,62.69 c 0.141,-0.1428 15.012,8.4245 32.856,18.7052 z m 138.792,0 32.573,18.9908 v 37.839 l -0.141,37.838 -32.574,18.848 -32.432,18.706 -32.29,-18.848 -32.149,-18.706 -0.424,-37.838 -0.284,-37.839 32.149,-18.8481 C 289.313,71.1144 303.9,62.69 304.183,62.69 c 0.142,-0.1428 15.012,8.4245 32.857,18.7052 z m 138.791,0 32.574,18.9908 -0.284,37.839 -0.424,37.838 -32.149,18.706 -32.29,18.848 -32.149,-18.848 -32.29,-18.706 -0.425,-37.838 -0.283,-37.839 32.148,-18.8481 C 428.104,71.1144 442.691,62.69 442.974,62.69 c 0.142,-0.1428 15.013,8.4245 32.857,18.7052 z m 138.792,0 32.573,18.9908 -0.283,37.839 -0.425,37.838 -32.149,18.706 -32.29,18.848 -32.149,-18.848 -32.29,-18.706 -0.425,-37.838 -0.283,-37.839 32.149,-18.8481 C 566.895,71.1144 581.483,62.69 581.766,62.69 c 0.141,-0.1428 15.012,8.4245 32.857,18.7052 z m 138.791,0 32.574,18.9908 -0.284,37.839 -0.425,37.838 -32.148,18.706 -32.29,18.848 -32.149,-18.848 -32.29,-18.706 -0.425,-37.838 -0.283,-37.839 32.148,-18.8481 C 705.687,71.1144 720.274,62.69 720.557,62.69 c 0.142,-0.1428 15.012,8.4245 32.857,18.7052 z m 138.792,0 32.573,18.9908 -0.283,37.839 -0.425,37.838 -32.149,18.706 -32.29,18.848 -32.432,-18.706 -32.573,-18.848 -0.142,-37.838 v -37.839 l 32.29,-18.8481 C 844.478,71.1144 859.066,62.69 859.349,62.69 c 0.141,-0.1428 15.012,8.4245 32.857,18.7052 z m 138.794,0 32.57,18.9908 -0.28,37.839 -0.43,37.838 -32.15,18.706 -32.287,18.848 -32.432,-18.706 -32.573,-18.848 -0.142,-37.838 V 100.386 L 965.567,81.5379 C 983.27,71.1144 997.857,62.69 998.14,62.69 c 0.142,-0.1428 15.01,8.4245 32.86,18.7052 z m 138.79,0 32.57,18.9908 -0.28,37.839 -0.43,37.838 -32.14,18.706 -32.3,18.848 -32.43,-18.706 -32.57,-18.848 -0.14,-37.838 v -37.839 l 32.29,-18.8481 c 17.7,-10.4235 32.29,-18.8479 32.57,-18.8479 0.14,-0.1428 15.01,8.4245 32.86,18.7052 z m 139.07,0 32.29,18.8478 -0.28,37.839 -0.42,37.981 -32.15,18.706 -32.29,18.848 -32.58,-18.706 -32.43,-18.848 -0.14,-37.838 v -37.982 l 32.29,-18.7051 c 17.7,-10.4235 32.43,-18.8479 32.71,-18.9907 0.29,0 15.16,8.4245 33,18.848 z m -1455.891,122.0838 30.874,17.991 -0.283,37.839 -0.425,37.981 -31.157,18.134 c -17.137,10.138 -32.149,18.277 -33.282,18.277 -1.133,0 -16.145,-8.281 -33.281,-18.277 l -31.157,-18.276 -0.425,-37.982 -0.284,-37.839 32.149,-18.705 c 17.845,-10.281 33.14,-18.42 34.273,-17.991 1.133,0.428 15.862,8.853 32.998,18.848 z m 137.37552,-0.857 32.29028,18.848 -0.2833,37.839 -0.4248,37.981 -31.1573,18.134 c -17.1365,10.138 -32.1486,18.277 -33.2816,18.277 -1.133,0 -16.1451,-8.281 -33.2816,-18.277 l -31.1572,-18.276 -0.425,-37.839 -0.283,-37.839 32.1484,-18.705 c 17.8446,-10.424 32.5735,-18.848 32.8568,-18.848 0.2832,0 15.1537,8.424 32.99832,18.705 z m 138.79148,0 32.29,18.848 -0.283,37.839 -0.425,37.981 -31.157,18.134 c -17.137,10.138 -32.1488,18.277 -33.2818,18.277 -1.133,0 -16.1451,-8.281 -33.2816,-18.277 L 31.8403,297.148 31.4155,259.309 31.1322,221.47 63.2808,202.765 c 17.8446,-10.424 32.5735,-18.848 32.8568,-18.848 0.2832,0 15.1534,8.424 32.9984,18.705 z m 138.791,0 32.291,18.848 -0.284,37.839 -0.424,37.981 -31.158,18.134 c -17.136,10.138 -32.148,18.277 -33.281,18.277 -1.133,0 -16.146,-8.281 -33.282,-18.277 l -31.157,-18.276 -0.425,-37.839 -0.283,-37.839 32.148,-18.705 c 17.845,-10.424 32.574,-18.848 32.857,-18.848 0.283,0 15.154,8.424 32.998,18.705 z m 138.792,0 32.29,18.848 -0.283,37.839 -0.425,37.839 -31.157,18.276 c -17.137,9.996 -32.149,18.277 -33.282,18.277 -1.133,0 -16.145,-8.281 -33.282,-18.277 l -31.157,-18.276 -0.425,-37.839 -0.283,-37.839 32.149,-18.705 c 17.844,-10.424 32.573,-18.848 32.856,-18.848 0.284,0 15.154,8.424 32.999,18.705 z m 138.791,0 32.29,18.848 -0.283,37.839 -0.425,37.839 -31.157,18.276 c -17.136,9.996 -32.149,18.277 -33.282,18.277 -1.133,0 -16.145,-8.281 -33.281,-18.277 l -31.157,-18.276 -0.425,-37.839 -0.284,-37.839 32.149,-18.705 c 17.845,-10.424 32.574,-18.848 32.857,-18.848 0.283,0 15.154,8.424 32.998,18.705 z m 138.792,0 32.29,18.848 -0.283,37.839 -0.425,37.839 -31.158,18.276 c -17.136,9.996 -32.148,18.277 -33.281,18.277 -1.133,0 -16.145,-8.281 -33.282,-18.277 l -31.157,-18.276 -0.425,-37.839 -0.283,-37.839 32.148,-18.705 c 17.845,-10.424 32.574,-18.848 32.857,-18.848 0.283,0 15.154,8.424 32.999,18.705 z m 138.791,0 32.29,18.848 -0.283,37.839 -0.425,37.839 -31.157,18.276 c -17.137,9.996 -32.149,18.277 -33.282,18.277 -1.133,0 -16.145,-8.281 -33.281,-18.277 l -31.158,-18.276 -0.425,-37.839 -0.283,-37.839 32.149,-18.705 c 17.844,-10.424 32.573,-18.848 32.857,-18.848 0.283,0 15.153,8.424 32.998,18.705 z m 138.791,0 32.291,18.848 -0.284,37.839 -0.424,37.839 -31.158,18.276 c -17.136,9.996 -32.148,18.277 -33.281,18.277 -1.133,0 -16.145,-8.139 -33.282,-18.277 l -31.157,-18.134 -0.425,-37.981 -0.283,-37.839 32.148,-18.705 c 17.845,-10.424 32.574,-18.848 32.857,-18.848 0.283,0 15.154,8.424 32.998,18.705 z m 138.796,0 32.29,18.848 -0.29,37.839 -0.42,37.839 -31.16,18.276 c -17.14,9.996 -32.15,18.277 -33.28,18.277 -1.13,0 -16.15,-8.139 -33.28,-18.277 l -31.16,-18.134 -0.42,-37.981 -0.29,-37.839 32.15,-18.705 c 17.85,-10.424 32.57,-18.848 32.86,-18.848 0.28,0 15.15,8.424 33,18.705 z m 138.79,0 32.29,18.848 -0.29,37.839 -0.42,37.839 -31.16,18.276 c -17.13,9.996 -32.15,18.277 -33.28,18.277 -1.13,0 -16.14,-8.139 -33.28,-18.277 l -31.16,-18.134 -0.42,-37.981 -0.29,-37.839 32.15,-18.705 c 17.85,-10.424 32.58,-18.848 32.86,-18.848 0.28,0 15.15,8.424 33,18.705 z m 140.2,0.857 30.88,17.848 -0.28,37.839 -0.43,37.982 -31.16,18.276 c -17.13,9.996 -32.15,18.277 -33.28,18.277 -1.13,0 -16.14,-8.139 -33.28,-18.277 l -31.16,-18.134 -0.42,-37.981 -0.29,-37.839 32.15,-18.848 c 18.27,-10.566 33.14,-18.42 34.42,-17.848 1.13,0.428 16,8.852 32.85,18.705 z m -1597.513,120.227 31.583,18.563 v 37.981 37.982 l -31.866,18.562 c -17.42,10.281 -32.715,18.277 -33.99,17.991 -1.133,-0.428 -15.861,-8.71 -32.573,-18.562 l -30.449,-17.848 V 380.25 342.126 l 31.157,-18.277 c 17.137,-10.138 31.865,-18.42 32.857,-18.42 0.85,-0.142 15.862,8.139 33.281,18.277 z m 138.7918,0 31.5821,18.563 v 37.981 37.982 l -31.5821,18.562 c -17.4197,10.138 -32.1488,18.42 -32.7148,18.42 -0.708,0 -15.579,-8.425 -33.14,-18.705 l -32.149,-18.706 V 380.25 342.697 l 31.582,-18.562 c 17.278,-10.281 32.149,-18.563 33.14,-18.706 0.85,-0.142 15.8621,8.139 33.2818,18.277 z m 138.7914,0 31.5821,18.563 v 37.981 37.982 l -31.5821,18.562 c -17.4197,10.138 -32.1486,18.42 -32.7151,18.42 -0.7081,0 -15.5786,-8.425 -33.13998,-18.705 L -38.2635,417.803 V 380.25 342.697 L -6.68134,324.135 C 10.5968,313.854 25.4673,305.572 26.4586,305.429 c 0.8498,-0.142 15.8619,8.139 33.2816,18.277 z m 138.7918,0 31.582,18.563 v 37.981 37.982 l -31.582,18.562 c -17.42,10.138 -32.149,18.42 -32.715,18.42 -0.709,0 -15.579,-8.425 -33.14,-18.705 L 100.528,417.803 V 380.25 342.697 l 31.582,-18.562 c 17.278,-10.281 32.149,-18.563 33.14,-18.706 0.85,-0.142 15.862,8.139 33.282,18.277 z m 138.791,0 31.582,18.563 v 37.981 37.982 l -31.582,18.562 c -17.42,10.138 -32.149,18.42 -32.715,18.42 -0.708,0 -15.579,-8.425 -33.14,-18.705 L 239.319,417.803 V 380.25 342.697 l 31.582,-18.562 c 17.279,-10.281 32.149,-18.563 33.14,-18.706 0.85,-0.142 15.862,8.139 33.282,18.277 z m 138.791,0 31.583,18.563 v 37.981 37.982 l -31.583,18.562 c -17.419,10.138 -32.29,18.42 -32.856,18.42 -0.567,0 -15.437,-8.282 -32.857,-18.42 L 378.819,418.232 V 380.25 342.269 l 31.157,-18.42 c 17.137,-9.995 31.865,-18.42 32.857,-18.42 0.85,-0.142 15.862,8.139 33.281,18.277 z m 138.792,0 31.582,18.563 v 37.981 37.982 l -31.582,18.562 c -17.42,10.138 -32.29,18.42 -32.857,18.42 -0.566,0 -15.437,-8.282 -32.857,-18.42 L 517.61,418.232 V 380.25 342.269 l 31.158,-18.42 c 17.136,-9.995 31.865,-18.42 32.856,-18.42 0.85,-0.142 15.862,8.139 33.282,18.277 z m 138.791,0 31.582,18.563 v 37.981 37.982 l -31.582,18.562 c -17.419,10.138 -32.29,18.42 -32.856,18.42 -0.567,0 -15.438,-8.282 -32.857,-18.42 L 656.402,418.232 V 380.25 342.269 l 31.157,-18.42 c 17.136,-9.995 31.865,-18.42 32.857,-18.42 0.849,-0.142 15.862,8.139 33.281,18.277 z m 138.933,0.286 32.149,18.705 v 37.553 37.553 l -32.149,18.706 c -17.561,10.28 -32.432,18.705 -33.14,18.705 -0.566,0 -15.295,-8.282 -32.715,-18.42 L 795.193,418.232 V 380.25 342.269 l 31.157,-18.42 c 17.137,-9.995 31.866,-18.42 32.715,-18.42 0.85,-0.142 16.004,8.282 33.565,18.563 z m 138.79,0 32.15,18.705 v 37.553 37.553 l -32.15,18.706 c -17.56,10.28 -32.43,18.705 -33.138,18.705 -0.567,0 -15.296,-8.282 -32.715,-18.42 L 933.985,418.232 V 380.25 342.269 l 31.157,-18.42 c 17.136,-9.995 31.865,-18.42 32.715,-18.42 0.85,-0.142 16.003,8.282 33.563,18.563 z m 138.79,0 32.15,18.705 v 37.553 37.553 l -32.15,18.706 c -17.56,10.28 -32.43,18.705 -33.14,18.705 -0.56,0 -15.29,-8.282 -32.71,-18.42 l -31.58,-18.562 V 380.25 342.269 l 31.15,-18.42 c 17.14,-9.995 31.87,-18.42 32.72,-18.42 0.85,-0.142 16,8.282 33.56,18.563 z m 138.79,0 32.15,18.705 v 37.553 37.553 L 1309,436.509 c -17.56,10.28 -32.43,18.705 -33.14,18.705 -0.56,0 -15.29,-8.282 -32.71,-18.42 l -31.58,-18.562 V 380.25 342.269 l 31.15,-18.42 c 17.14,-9.995 31.87,-18.42 32.72,-18.42 0.85,-0.142 16,8.282 33.56,18.563 z m 138.8,-0.286 31.44,18.42 v 38.124 38.125 l -30.45,17.848 c -16.71,9.852 -31.44,18.134 -32.58,18.562 -1.27,0.286 -16.57,-7.71 -33.99,-17.991 l -31.86,-18.562 V 380.25 342.269 l 31.16,-18.42 c 17.13,-9.995 32,-18.42 32.99,-18.42 0.85,-0.142 15.87,8.139 33.29,18.277 z m -1595.822,121.37 31.157,18.134 0.425,37.982 0.283,37.838 -31.44,18.42 c -17.42,9.995 -32.574,18.277 -33.707,18.277 -1.133,0 -16.286,-8.139 -33.706,-18.277 l -31.441,-18.277 0.284,-37.839 0.425,-37.981 31.157,-18.277 c 17.136,-9.995 32.148,-18.277 33.281,-18.277 1.133,0 16.145,8.139 33.282,18.277 z m 138.7914,0 31.1573,18.134 0.4248,37.982 0.2833,37.838 -32.57351,18.848 -32.57349,18.991 -32.5735,-18.991 -32.5733,-18.848 0.283,-37.838 0.425,-37.839 31.1572,-18.277 c 17.1365,-9.995 32.1486,-18.277 33.2816,-18.277 1.133,0 16.1451,8.139 33.2816,18.277 z m 138.7916,0 31.157,18.134 0.425,37.982 0.283,37.838 -32.573,18.848 -32.5738,18.991 -32.5735,-18.991 -32.5735,-18.848 0.2833,-37.838 0.4248,-37.839 31.1573,-18.277 c 17.1365,-9.995 32.1486,-18.277 33.2816,-18.277 1.133,0 16.1448,8.139 33.2818,18.277 z m 138.791,0 31.158,18.134 0.424,37.982 0.284,37.838 -32.574,18.848 -32.573,18.991 -32.574,-18.991 -32.573,-18.848 0.283,-37.838 0.425,-37.839 31.157,-18.277 c 17.136,-9.995 32.149,-18.277 33.282,-18.277 1.133,0 16.145,8.139 33.281,18.277 z m 138.792,0 31.157,18.277 0.425,37.839 0.283,37.838 -32.573,18.848 -32.574,18.991 -32.573,-18.991 -32.574,-18.848 0.283,-37.838 0.425,-37.839 31.157,-18.277 c 17.137,-9.995 32.149,-18.277 33.282,-18.277 1.133,0 16.145,8.282 33.282,18.277 z m 138.791,0 31.157,18.277 0.425,37.839 0.283,37.838 -32.573,18.848 -32.574,18.991 -32.573,-18.991 -32.574,-18.848 0.284,-37.838 0.425,-37.839 31.157,-18.277 c 17.136,-9.995 32.148,-18.277 33.281,-18.277 1.133,0 16.146,8.282 33.282,18.277 z m 138.791,0 31.158,18.277 0.425,37.839 0.283,37.838 -32.574,18.848 -32.573,18.991 -32.574,-18.991 -32.573,-18.848 0.283,-37.838 0.425,-37.839 31.157,-18.277 c 17.137,-9.995 32.149,-18.277 33.282,-18.277 1.133,0 16.145,8.282 33.281,18.277 z m 138.792,0 31.157,18.277 0.425,37.839 0.283,37.838 -32.573,18.848 -32.574,18.991 -32.573,-18.991 -32.574,-18.848 0.283,-37.838 0.425,-37.839 31.158,-18.277 c 17.136,-9.995 32.148,-18.277 33.281,-18.277 1.133,0 16.145,8.282 33.282,18.277 z m 138.791,0 31.158,18.277 0.424,37.839 0.284,37.838 -32.574,18.848 -32.573,18.991 -32.574,-18.991 -32.573,-18.848 0.283,-37.838 0.425,-37.982 31.157,-18.134 c 17.137,-10.138 32.149,-18.277 33.282,-18.277 1.133,0 16.145,8.282 33.281,18.277 z m 138.791,0 31.16,18.277 0.42,37.839 0.29,37.838 -32.58,18.848 -32.57,18.991 -32.57,-18.991 -32.58,-18.848 0.29,-37.838 0.42,-37.982 31.16,-18.134 c 17.13,-10.138 32.15,-18.277 33.28,-18.277 1.13,0 16.14,8.282 33.28,18.277 z m 138.79,0 31.16,18.277 0.42,37.839 0.29,37.838 -32.58,18.848 -32.57,18.991 -32.57,-18.991 -32.58,-18.848 0.29,-37.838 0.42,-37.982 31.16,-18.134 c 17.14,-10.138 32.15,-18.277 33.28,-18.277 1.13,0 16.15,8.282 33.28,18.277 z m 138.79,0 31.16,18.277 0.43,37.981 0.28,37.839 -31.44,18.277 c -17.42,10.138 -32.58,18.277 -33.71,18.277 -1.13,0 -16.28,-8.282 -33.7,-18.277 l -31.45,-18.42 0.29,-37.838 0.42,-37.982 31.16,-18.134 c 17.14,-10.138 32.15,-18.277 33.28,-18.277 1.13,0 16.15,8.282 33.28,18.277 z m -1457.5895,120.798 32.007,18.563 0.1416,37.839 v 37.981 l -32.5735,18.848 -32.7156,18.991 -32.573,-18.848 -32.432,-18.991 0.283,-37.839 0.425,-37.981 31.866,-18.705 c 17.561,-10.424 32.148,-18.706 32.573,-18.563 0.567,0 15.2955,8.425 32.9985,18.705 z m 138.7914,0 32.0069,18.563 0.1417,37.839 v 37.838 L 59.457,679.105 26.8835,697.953 -5.69,679.105 l -32.5735,-18.991 0.2832,-37.838 0.4249,-37.839 31.8654,-18.705 c 17.5614,-10.424 32.1486,-18.706 32.5735,-18.563 0.4249,0 15.2954,8.425 32.9984,18.705 z m 138.7911,0 32.007,18.563 0.142,37.839 v 37.838 l -32.574,18.991 -32.573,18.848 -32.574,-18.848 -32.573,-18.991 0.283,-37.838 0.425,-37.839 31.865,-18.705 c 17.562,-10.424 32.149,-18.706 32.574,-18.563 0.425,0 15.295,8.425 32.998,18.705 z m 138.792,0 32.007,18.563 0.141,37.839 v 37.838 l -32.573,18.991 -32.574,18.848 -32.573,-18.848 -32.574,-18.991 0.284,-37.838 0.424,-37.839 31.866,-18.705 c 17.561,-10.424 32.148,-18.706 32.573,-18.563 0.425,0 15.296,8.425 32.999,18.705 z m 137.8,-0.285 32.432,18.848 0.424,37.839 0.284,37.838 -32.574,18.991 -32.573,18.848 -32.574,-18.848 -32.573,-18.991 0.283,-37.838 0.425,-37.839 31.865,-18.705 c 17.562,-10.424 31.866,-18.848 32.007,-18.991 0.142,-0.143 14.729,8.424 32.574,18.848 z m 138.791,0 32.432,18.848 0.425,37.839 0.283,37.838 -32.573,18.991 -32.574,18.848 -32.573,-18.848 -32.574,-18.991 0.283,-37.838 0.425,-37.839 31.866,-18.705 c 17.561,-10.424 31.865,-18.848 32.007,-18.991 0.141,-0.143 14.729,8.424 32.573,18.848 z m 138.792,0 32.431,18.848 0.425,37.839 0.284,37.838 -32.574,18.991 -32.573,18.848 -32.574,-18.848 -32.573,-18.991 0.283,-37.838 0.425,-37.839 31.865,-18.705 c 17.561,-10.424 31.865,-18.848 32.007,-18.991 0.142,-0.143 14.729,8.424 32.574,18.848 z m 138.791,0 32.432,18.848 0.425,37.839 0.283,37.838 -32.573,18.991 -32.574,18.848 -32.574,-18.848 -32.573,-18.991 v -37.838 l 0.142,-37.839 32.148,-18.705 c 17.703,-10.424 32.149,-18.848 32.29,-18.991 0.142,-0.143 14.729,8.424 32.574,18.848 z m 138.791,0 32.43,18.848 0.43,37.839 0.28,37.838 -32.57,18.991 -32.577,18.848 -32.573,-18.848 -32.574,-18.991 v -37.838 l 0.142,-37.839 32.149,-18.705 c 17.703,-10.424 32.148,-18.848 32.29,-18.991 0.141,-0.143 14.733,8.424 32.573,18.848 z m 138.79,0 32.43,18.848 0.43,37.839 0.28,37.838 -32.57,18.991 -32.58,18.848 -32.57,-18.848 -32.57,-18.991 v -37.838 l 0.14,-37.839 32.15,-18.705 c 17.7,-10.424 32.15,-18.848 32.29,-18.991 0.14,-0.143 14.73,8.424 32.57,18.848 z m 138.79,0 32.44,18.848 0.42,37.981 0.28,37.839 -32.43,18.991 -32.57,18.848 -32.72,-18.991 -32.57,-18.848 v -37.981 l 0.14,-37.839 32.15,-18.705 c 17.7,-10.424 32.15,-18.848 32.29,-18.991 0.14,-0.143 14.73,8.424 32.57,18.848 z M -9.37221,687.244 22.6348,705.806 v 37.839 37.839 l -32.7152,18.848 -32.5734,18.991 -32.5735,-18.991 -32.4317,-18.848 v -37.839 -37.839 l 32.29,-18.848 c 17.703,-10.28 32.5735,-18.705 33.14,-18.562 0.4249,0.143 15.2954,8.567 32.85679,18.848 z m 138.79121,0 32.007,18.562 v 37.839 37.839 L 128.853,800.332 96.2792,819.18 63.7057,800.332 31.2738,781.484 31.1322,743.645 v -37.839 l 32.2903,-18.848 c 17.703,-10.28 32.5735,-18.705 33.14,-18.562 0.4248,0.143 15.2955,8.567 32.8565,18.848 z m 138.792,0 32.007,18.562 v 37.839 37.839 l -32.574,18.848 -32.573,18.848 -32.574,-18.848 -32.432,-18.848 -0.141,-37.839 v -37.839 l 32.29,-18.848 c 17.703,-10.28 32.573,-18.705 33.14,-18.562 0.425,0.143 15.295,8.567 32.857,18.848 z m 138.791,0 32.007,18.562 v 37.839 37.839 l -32.573,18.848 -32.574,18.705 -32.573,-18.705 -32.432,-18.848 -0.142,-37.839 v -37.839 l 32.29,-18.848 c 17.703,-10.28 32.574,-18.705 33.14,-18.562 0.425,0.143 15.296,8.567 32.857,18.848 z m 138.791,0 32.007,18.562 v 37.839 37.839 l -32.573,18.848 -32.574,18.705 -32.573,-18.705 -32.574,-18.848 v -37.839 -37.839 l 32.291,-18.848 c 17.703,-10.28 32.573,-18.705 33.14,-18.562 0.425,0.143 15.295,8.567 32.856,18.848 z m 138.792,0 32.007,18.562 v 37.839 37.839 l -32.574,18.848 -32.573,18.705 -32.574,-18.705 -32.573,-18.848 v -37.839 -37.839 l 32.29,-18.848 c 17.703,-10.28 32.574,-18.705 33.14,-18.562 0.425,0.143 15.295,8.567 32.857,18.848 z m 138.791,0 32.007,18.562 v 37.839 l -0.141,37.839 -32.432,18.848 -32.574,18.705 -32.573,-18.705 -32.574,-18.848 v -37.839 -37.839 l 32.29,-18.848 c 17.703,-10.28 32.574,-18.705 33.141,-18.562 0.424,0.143 15.295,8.567 32.856,18.848 z m 138.792,0 32.007,18.562 v 37.839 l -0.142,37.839 -32.432,18.848 -32.573,18.848 -32.574,-18.848 -32.573,-18.848 v -37.839 -37.839 l 32.29,-18.848 c 17.703,-10.28 32.573,-18.705 32.998,-18.562 0.567,0.143 15.296,8.567 32.999,18.848 z m 138.792,0 32.01,18.562 v 37.839 l -0.15,37.839 -32.43,18.848 -32.57,18.848 -32.57,-18.848 -32.58,-18.848 v -37.839 -37.839 l 32.29,-18.848 c 17.71,-10.28 32.58,-18.705 33,-18.562 0.57,0.143 15.3,8.567 33,18.848 z m 138.79,0 32.01,18.562 v 37.839 37.839 l -32.43,18.848 -32.58,18.991 -32.57,-18.991 -32.72,-18.848 v -37.839 -37.839 l 32.29,-18.848 c 17.71,-10.28 32.58,-18.705 33,-18.562 0.57,0.143 15.3,8.567 33,18.848 z M 59.7402,808.185 92.0305,827.033 91.7473,864.872 91.3223,902.711 59.0321,921.559 26.7419,940.407 -5.69,921.559 -38.1219,902.854 -38.2635,865.015 V 827.033 L -5.97323,808.328 C 11.7298,797.905 26.4586,789.337 26.7419,789.337 c 0.2832,0 15.1537,8.425 32.9983,18.848 z m 138.7918,0 32.29,18.848 -0.283,37.839 -0.425,37.839 -31.157,18.277 c -17.137,9.995 -32.149,18.277 -33.282,18.277 -1.133,-0.143 -16.145,-8.282 -33.282,-18.277 l -31.157,-18.277 -0.425,-37.839 -0.283,-37.696 32.149,-18.848 c 17.844,-10.423 32.573,-18.991 32.856,-18.991 0.284,0 15.154,8.425 32.999,18.848 z m 138.791,0 32.29,18.848 -0.283,37.839 -0.425,37.839 -31.157,18.277 c -17.137,9.995 -32.149,18.277 -33.282,18.277 -1.133,-0.143 -16.145,-8.282 -33.281,-18.277 l -31.158,-18.277 -0.424,-37.839 -0.284,-37.696 32.149,-18.848 c 17.845,-10.423 32.573,-18.991 32.857,-18.991 0.283,0 15.153,8.425 32.998,18.848 z m 138.65,0 32.432,18.848 -0.284,37.839 -0.424,37.839 -31.158,18.277 c -17.136,9.995 -32.148,18.134 -33.281,18.134 -1.133,0 -16.145,-8.139 -33.282,-18.134 l -31.157,-18.277 -0.425,-37.839 -0.283,-37.839 32.148,-18.848 c 17.845,-10.28 32.574,-18.705 32.715,-18.848 0.284,0 15.154,8.425 32.999,18.848 z m 138.791,0 32.432,18.848 -0.283,37.839 -0.425,37.839 -31.157,18.277 c -17.137,9.995 -32.149,18.134 -33.282,18.134 -1.133,0 -16.145,-8.139 -33.281,-18.134 l -31.158,-18.277 -0.425,-37.839 -0.283,-37.839 32.149,-18.848 c 17.844,-10.28 32.573,-18.705 32.715,-18.848 0.283,0 15.154,8.425 32.998,18.848 z m 138.792,0 32.432,18.848 -0.284,37.839 -0.425,37.839 -31.157,18.277 c -17.136,9.995 -32.149,18.134 -33.281,18.134 -1.133,0 -16.146,-8.139 -33.282,-18.134 l -31.157,-18.277 -0.425,-37.839 -0.283,-37.839 32.148,-18.848 c 17.845,-10.28 32.574,-18.705 32.715,-18.848 0.284,0 15.154,8.425 32.999,18.848 z m 138.791,0 32.432,18.991 -0.283,37.696 -0.425,37.839 -31.157,18.277 c -17.137,9.995 -32.149,18.134 -33.282,18.134 -1.133,0 -16.145,-8.139 -33.282,-18.134 l -31.157,-18.277 -0.425,-37.839 -0.283,-37.839 32.149,-18.848 c 17.844,-10.28 32.573,-18.848 32.856,-18.848 0.284,0 15.012,8.568 32.857,18.848 z m 138.793,0 32.43,18.991 -0.28,37.696 -0.43,37.839 -31.16,18.277 c -17.13,9.995 -32.144,18.134 -33.277,18.277 -1.133,0 -16.145,-8.282 -33.281,-18.277 l -31.157,-18.277 -0.425,-37.839 -0.284,-37.839 32.149,-18.848 c 17.845,-10.28 32.574,-18.848 32.857,-18.848 0.283,0 15.008,8.568 32.858,18.848 z m 138.79,0 32.43,18.848 v 37.982 l -0.14,37.839 -32.43,18.705 -32.43,18.848 -32.29,-18.848 -32.29,-18.848 -0.43,-37.839 -0.28,-37.839 32.15,-18.848 c 17.84,-10.28 32.57,-18.848 32.85,-18.848 0.29,0 15.02,8.425 32.86,18.848 z m -1039.378,122.084 30.874,17.848 -0.283,37.839 -0.425,37.844 -31.44,18.41 c -17.42,10.14 -32.4323,18.42 -33.282,18.28 -0.9914,0 -15.8619,-8.14 -32.9984,-18.28 l -31.1573,-18.13 -0.4248,-37.981 -0.2833,-37.982 32.1486,-18.705 c 18.4111,-10.709 33.14,-18.419 34.4146,-17.848 1.133,0.428 16.0036,8.853 32.8566,18.705 z m 138.792,0 30.874,17.848 -0.284,37.839 -0.424,37.844 -30.45,17.84 c -16.711,9.86 -31.44,18.14 -32.715,18.57 -1.133,0.28 -16.428,-7.71 -33.99,-17.85 l -31.723,-18.56 -0.425,-37.844 -0.283,-37.839 32.148,-18.705 c 18.411,-10.709 33.14,-18.419 34.415,-17.848 1.133,0.428 16.003,8.853 32.857,18.705 z m 138.791,0 30.874,17.848 -0.283,37.839 -0.425,37.844 -31.582,18.41 c -17.42,10.14 -32.149,18.42 -32.857,18.42 -0.708,0 -15.437,-8.28 -32.857,-18.42 l -31.582,-18.41 -0.425,-37.844 -0.283,-37.839 32.149,-18.705 c 18.411,-10.709 33.14,-18.419 34.414,-17.848 1.133,0.428 16.004,8.853 32.857,18.705 z m 138.791,0 30.874,17.848 -0.283,37.839 -0.425,37.844 -31.582,18.41 c -17.42,10.14 -32.148,18.42 -32.857,18.42 -0.708,0 -15.437,-8.28 -32.856,-18.42 l -31.582,-18.41 -0.425,-37.844 -0.284,-37.839 32.149,-18.705 c 18.411,-10.709 33.14,-18.419 34.415,-17.848 1.133,0.428 16.003,8.853 32.856,18.705 z m 138.792,0 30.874,17.848 -0.283,37.839 -0.425,37.844 -30.449,17.84 c -16.712,9.86 -31.441,18.14 -32.716,18.57 -1.133,0.28 -16.428,-7.71 -33.989,-17.85 l -31.724,-18.56 -0.425,-37.844 -0.283,-37.839 32.148,-18.705 c 18.412,-10.709 33.14,-18.419 34.415,-17.848 1.133,0.428 16.004,8.853 32.857,18.705 z m 138.791,0 30.874,17.848 -0.283,37.839 -0.425,37.844 -31.582,18.41 c -17.42,10.14 -32.149,18.42 -32.857,18.42 -0.708,0 -15.437,-8.28 -32.857,-18.42 l -31.582,-18.41 -0.425,-37.844 -0.283,-37.839 32.149,-18.705 c 18.411,-10.709 33.14,-18.419 34.414,-17.848 1.133,0.428 16.004,8.853 32.857,18.705 z m 138.792,0 30.874,17.848 -0.284,37.839 -0.424,37.844 -31.724,18.56 c -17.562,10.14 -32.857,18.13 -33.99,17.85 -1.275,-0.43 -16.003,-8.71 -32.715,-18.57 l -30.449,-17.84 -0.425,-37.844 -0.283,-37.839 32.148,-18.705 c 18.411,-10.709 33.14,-18.419 34.415,-17.848 1.133,0.428 16.003,8.853 32.857,18.705 z m 138.789,0 30.88,17.848 -0.29,37.982 -0.42,37.981 -31.16,18.13 c -17.14,10.14 -32.01,18.28 -33,18.28 -0.85,0.14 -15.86,-8.14 -33.28,-18.28 l -31.44,-18.41 -0.42,-37.844 -0.29,-37.839 32.15,-18.705 c 18.41,-10.709 33.14,-18.419 34.42,-17.848 1.13,0.428 16,8.853 32.85,18.705 z m -903.558,120.231 31.582,18.42 v 38.12 38.12 l -31.582,18.42 c -17.42,10.14 -32.291,18.42 -32.857,18.42 -0.708,0 -15.437,-8.28 -32.857,-18.42 l -31.582,-18.56 v -37.98 -38.12 l 31.157,-18.28 c 17.137,-10.14 31.866,-18.42 32.857,-18.42 0.85,-0.14 15.862,8.14 33.282,18.28 z m 138.791,0 31.582,18.42 v 38.12 38.12 l -31.582,18.42 c -17.42,10.14 -32.29,18.42 -32.857,18.42 -0.708,0 -15.437,-8.28 -32.856,-18.42 l -31.583,-18.56 v -37.98 -38.12 l 31.158,-18.28 c 17.136,-10.14 31.865,-18.42 32.856,-18.42 0.85,-0.14 15.862,8.14 33.282,18.28 z m 138.791,0 31.583,18.42 v 38.12 37.98 l -31.583,18.56 c -17.419,10.14 -32.148,18.42 -32.856,18.42 -0.708,0 -15.437,-8.28 -32.857,-18.42 l -31.582,-18.56 v -37.98 -38.12 l 31.157,-18.28 c 17.137,-10.14 31.865,-18.42 32.857,-18.42 0.85,-0.14 15.862,8.14 33.281,18.28 z m 138.792,0 31.582,18.42 v 38.12 37.98 l -31.582,18.56 c -17.42,10.14 -32.149,18.42 -32.857,18.42 -0.708,0 -15.437,-8.28 -32.857,-18.42 l -31.582,-18.56 v -37.98 -38.12 l 31.158,-18.28 c 17.136,-10.14 31.865,-18.42 32.856,-18.42 0.85,-0.14 15.862,8.14 33.282,18.28 z m 138.791,0 31.582,18.42 v 38.12 37.98 l -31.582,18.56 c -17.419,10.14 -32.148,18.42 -32.856,18.42 -0.709,0 -15.438,-8.28 -32.857,-18.42 l -31.582,-18.56 v -37.98 -38.12 l 31.157,-18.28 c 17.136,-10.14 31.865,-18.42 32.857,-18.42 0.849,-0.14 15.862,8.14 33.281,18.28 z m 138.792,0 31.582,18.42 v 38.12 37.98 l -31.582,18.56 c -17.42,10.14 -32.149,18.42 -32.857,18.42 -0.566,0 -15.437,-8.28 -32.857,-18.42 l -31.582,-18.42 v -38.12 -38.12 l 31.157,-18.28 c 17.137,-10.14 31.866,-18.42 32.857,-18.42 0.85,-0.14 15.862,8.14 33.282,18.28 z m 138.791,0 31.58,18.42 v 38.12 37.98 l -31.58,18.56 c -17.42,10.14 -32.148,18.42 -32.857,18.42 -0.566,0 -15.437,-8.28 -32.856,-18.42 l -31.582,-18.42 v -38.12 -38.12 l 31.157,-18.28 c 17.136,-10.14 31.865,-18.42 32.856,-18.42 0.85,-0.14 15.862,8.14 33.282,18.28 z"
         stroke="#2e270e"
         stroke-width="12.7348"
         id="path4" />
      <path
         d="m 583.428,311.37 c 1.673,0.933 3.98,2.234 6.78,3.828 6.082,3.461 14.423,8.248 23.54,13.48 l 29.812,17.312 v 32.691 l -0.017,2.214 -0.394,34.864 -29.692,17.208 -0.008,0.005 -28.657,16.661 h -2.209 l -28.52,-16.655 -0.014,-0.009 -0.015,-0.008 -29.828,-17.211 -0.392,-34.855 -0.262,-34.773 29.634,-17.305 c 9.115,-5.304 17.394,-10.096 23.424,-13.559 2.821,-1.62 5.14,-2.942 6.818,-3.888 z"
         fill="url(#paint1_linear_5070_2)"
         id="path5"
         style="fill:url(#paint1_linear_5070_2)" />
      <path
         d="m 372.836,188.96 c 1.646,0.931 3.833,2.183 6.452,3.693 6.103,3.52 14.472,8.387 23.621,13.706 l 29.972,17.638 v 33.339 l -0.016,2.249 -0.397,35.545 -29.845,17.526 -0.008,0.004 -28.823,16.981 h -2.057 l -28.685,-16.974 -0.029,-0.017 -29.981,-17.529 -0.395,-35.536 -0.264,-35.453 29.787,-17.627 c 9.15,-5.394 17.46,-10.268 23.512,-13.79 2.641,-1.537 4.843,-2.809 6.494,-3.755 z"
         fill="url(#paint2_linear_5070_2)"
         id="path6"
         style="fill:url(#paint2_linear_5070_2)" />
      <path
         d="m 647.672,673.423 c 1.655,0.926 3.924,2.213 6.676,3.785 6.03,3.446 14.302,8.211 23.342,13.419 l 29.543,17.224 v 25.279 l -0.07,9.391 -0.389,34.662 -29.395,17.101 -0.007,0.005 -27.694,16.164 h -3.496 l -27.558,-16.158 -0.015,-0.008 -0.015,-0.008 -29.528,-17.104 -0.389,-34.629 -0.259,-34.596 29.335,-17.198 c 9.031,-5.275 17.231,-10.04 23.205,-13.484 2.772,-1.599 5.055,-2.905 6.714,-3.845 z"
         fill="url(#paint3_linear_5070_2)"
         id="path7"
         style="fill:url(#paint3_linear_5070_2)" />
      <path
         d="m 581.901,795.39 c 1.655,0.926 3.924,2.213 6.676,3.785 6.03,3.446 14.302,8.211 23.342,13.419 l 29.55,17.228 v 24.363 l -0.077,10.303 -0.389,34.662 -29.395,17.101 -0.007,0.005 -27.445,16.019 h -3.993 l -27.31,-16.013 -0.015,-0.008 -0.015,-0.008 -29.528,-17.104 -0.389,-34.629 -0.259,-34.596 29.335,-17.198 c 9.031,-5.275 17.231,-10.04 23.205,-13.484 2.772,-1.599 5.055,-2.905 6.714,-3.845 z"
         fill="url(#paint4_linear_5070_2)"
         id="path8"
         style="fill:url(#paint4_linear_5070_2)" />
      <path
         d="m 304.111,70.1017 c 1.623,0.9103 3.779,2.1325 6.36,3.6074 6.03,3.4455 14.302,8.2107 23.342,13.419 l 29.58,17.2449 v 20.303 l -0.107,14.346 -0.389,34.662 -29.395,17.101 -0.007,0.005 -28.923,16.882 h -1.042 l -28.783,-16.876 -0.015,-0.008 -0.015,-0.009 -29.528,-17.103 -0.389,-34.629 -0.258,-34.596 29.334,-17.1979 c 9.031,-5.2749 17.231,-10.0403 23.205,-13.4844 2.602,-1.5007 4.774,-2.7429 6.403,-3.667 z"
         fill="url(#paint5_linear_5070_2)"
         id="path9"
         style="fill:url(#paint5_linear_5070_2)" />
      <path
         d="m 512.033,431.11 c 1.66,0.935 3.936,2.234 6.696,3.821 6.045,3.477 14.335,8.284 23.396,13.539 l 29.697,17.427 v 26.666 l -0.062,8.413 -0.392,35.063 -29.526,17.291 -0.008,0.005 -28.179,16.556 h -2.73 l -28.041,-16.549 -0.03,-0.017 -29.66,-17.294 -0.391,-35.031 -0.26,-34.997 29.477,-17.395 c 9.059,-5.327 17.286,-10.138 23.279,-13.616 2.78,-1.614 5.069,-2.933 6.734,-3.882 z"
         fill="url(#paint6_linear_5070_2)"
         id="path10"
         style="fill:url(#paint6_linear_5070_2)" />
    </g>
  </g>
  <defs
     id="defs27">
    <pattern
       inkscape:collect="always"
       xlink:href="#pattern6-7"
       preserveAspectRatio="xMidYMid"
       id="pattern27"
       patternTransform="matrix(2,0,0,1,-132,350)" />
    <pattern
       patternUnits="userSpaceOnUse"
       width="29"
       height="20"
       patternTransform="translate(190,350)"
       preserveAspectRatio="xMidYMid"
       style="fill:#000000"
       id="pattern6-7"
       inkscape:label=""
       inkscape:collect="always"
       inkscape:isstock="true">
      <path
         style="fill:none;stroke:#000000;stroke-width:10;stroke-linecap:butt;stroke-dasharray:none;paint-order:stroke markers fill;stop-color:#000000"
         d="M 0,5 C 19,5 10,15 29,15"
         id="path4-2"
         sodipodi:nodetypes="cc" />
    </pattern>
    <filter
       id="filter0_d_5070_2"
       x="144.298"
       y="125.703"
       width="735.336"
       height="811.745"
       filterUnits="userSpaceOnUse"
       color-interpolation-filters="sRGB">
      <feFlood
         flood-opacity="0"
         result="BackgroundImageFix"
         id="feFlood11" />
      <feColorMatrix
         in="SourceAlpha"
         type="matrix"
         values="0 0 0 0 0 0 0 0 0 0 0 0 0 0 0 0 0 0 127 0"
         result="hardAlpha"
         id="feColorMatrix11" />
      <feOffset
         dy="20"
         id="feOffset11" />
      <feGaussianBlur
         stdDeviation="15"
         id="feGaussianBlur11" />
      <feComposite
         in2="hardAlpha"
         operator="out"
         id="feComposite11" />
      <feColorMatrix
         type="matrix"
         values="0 0 0 0 0.579928 0 0 0 0 0.361982 0 0 0 0 0.0337188 0 0 0 0.3 0"
         id="feColorMatrix12" />
      <feBlend
         mode="normal"
         in2="BackgroundImageFix"
         result="effect1_dropShadow_5070_2"
         id="feBlend12" />
      <feBlend
         mode="normal"
         in="SourceGraphic"
         in2="effect1_dropShadow_5070_2"
         result="shape"
         id="feBlend13" />
    </filter>
    <linearGradient
       id="paint0_linear_5070_2"
       x1="480.5"
       y1="-78"
       x2="480.5"
       y2="1150"
       gradientUnits="userSpaceOnUse"
       gradientTransform="translate(-512)">
      <stop
         offset="0.0583005"
         stop-color="#FFD07F"
         id="stop13" />
      <stop
         offset="0.7726"
         stop-color="#FFBC52"
         id="stop14" />
      <stop
         offset="0.991287"
         stop-color="#FFAC2D"
         id="stop15" />
    </linearGradient>
    <linearGradient
       id="paint1_linear_5070_2"
       x1="523.21301"
       y1="331.55899"
       x2="642.25098"
       y2="450.93799"
       gradientUnits="userSpaceOnUse">
      <stop
         stop-color="#FFB23D"
         id="stop16" />
      <stop
         offset="1"
         stop-color="#D27F02"
         id="stop17" />
    </linearGradient>
    <linearGradient
       id="paint2_linear_5070_2"
       x1="312.04199"
       y1="209.502"
       x2="433.15399"
       y2="329.36499"
       gradientUnits="userSpaceOnUse">
      <stop
         stop-color="#FFB23D"
         id="stop18" />
      <stop
         offset="1"
         stop-color="#D27F02"
         id="stop19" />
    </linearGradient>
    <linearGradient
       id="paint3_linear_5070_2"
       x1="588.08301"
       y1="693.43201"
       x2="706.06"
       y2="811.62402"
       gradientUnits="userSpaceOnUse">
      <stop
         stop-color="#FFB23D"
         id="stop20" />
      <stop
         offset="1"
         stop-color="#D27F02"
         id="stop21" />
    </linearGradient>
    <linearGradient
       id="paint4_linear_5070_2"
       x1="522.31201"
       y1="815.37799"
       x2="640.16302"
       y2="933.57703"
       gradientUnits="userSpaceOnUse">
      <stop
         stop-color="#FFB23D"
         id="stop22" />
      <stop
         offset="1"
         stop-color="#D27F02"
         id="stop23" />
    </linearGradient>
    <linearGradient
       id="paint5_linear_5070_2"
       x1="244.20599"
       y1="90.189499"
       x2="362.64801"
       y2="208.41901"
       gradientUnits="userSpaceOnUse">
      <stop
         stop-color="#FFB23D"
         id="stop24" />
      <stop
         offset="1"
         stop-color="#D27F02"
         id="stop25" />
    </linearGradient>
    <linearGradient
       id="paint6_linear_5070_2"
       x1="452.207"
       y1="451.37399"
       x2="571.68799"
       y2="570.026"
       gradientUnits="userSpaceOnUse">
      <stop
         stop-color="#FFB23D"
         id="stop26" />
      <stop
         offset="1"
         stop-color="#D27F02"
         id="stop27" />
    </linearGradient>
  </defs>
</svg>
